<?xml version="1.0" encoding="UTF-8" standalone="no"?>
<!-- Created with Inkscape (http://www.inkscape.org/) -->
<svg xmlns:rdf="http://www.w3.org/1999/02/22-rdf-syntax-ns#" xmlns="http://www.w3.org/2000/svg" xml:space="preserve" version="1.1" xmlns:cc="http://creativecommons.org/ns#" xmlns:dc="http://purl.org/dc/elements/1.1/" viewBox="0 0 208.3 166.2"><metadata><rdf:RDF><cc:Work rdf:about=""><dc:format>image/svg+xml</dc:format><dc:type rdf:resource="http://purl.org/dc/dcmitype/StillImage"/><dc:title/></cc:Work></rdf:RDF></metadata><g fill-rule="nonzero" transform="matrix(1.25,0,0,-1.25,-4.057,169.5)" fill="#000"><g style="" transform="scale(1,-1)"><path d="m94.67-118.5c0-2.8,0.77-5.1,2.3-6.7s3.53-2.4,5.93-2.4c1.6,0,3,0.4,4.3,1.2,1.3,0.7,2.2,1.8,2.9,3.1,0.7,1.4,1,2.9,1,4.6,0,1.8-0.4,3.3-1.1,4.7s-1.7,2.4-2.9,3.1c-1.3,0.7-2.7,1.1-4.2,1.1-1.6,0-3.08-0.4-4.35-1.2s-2.24-1.8-2.9-3.2c-0.65-1.3-0.98-2.8-0.98-4.3zm2.34,0.1c0,2,0.56,3.7,1.67,4.9,1.12,1.2,2.52,1.7,4.22,1.7s3.1-0.6,4.2-1.8,1.7-2.9,1.7-5.1c0-1.4-0.3-2.6-0.8-3.6-0.4-1.1-1.1-1.9-2-2.5-0.9-0.5-2-0.8-3.1-0.8-1.6,0-2.99,0.5-4.15,1.6s-1.74,3-1.74,5.6z"/><path d="m108.3-76.42,2.2,0.57c-0.4,1.87-1.3,3.29-2.5,4.27-1.3,0.98-2.8,1.47-4.6,1.47s-3.3-0.37-4.49-1.13c-1.16-0.75-2.04-1.84-2.65-3.27-0.6-1.43-0.9-2.97-0.9-4.61,0-1.79,0.34-3.35,1.02-4.68s1.66-2.34,2.92-3.04c1.3-0.69,2.6-1.03,4.2-1.03,1.7,0,3.1,0.43,4.3,1.31,1.2,0.87,2,2.11,2.4,3.69l-2.2,0.53c-0.4-1.25-1-2.16-1.7-2.73-0.8-0.57-1.7-0.86-2.9-0.86-1.3,0-2.4,0.32-3.3,0.95-0.88,0.63-1.5,1.48-1.86,2.55s-0.54,2.17-0.54,3.3c0,1.46,0.21,2.74,0.64,3.83,0.42,1.09,1.09,1.9,1.96,2.44,0.9,0.54,1.9,0.81,2.9,0.81,1.3,0,2.4-0.37,3.3-1.1,0.9-0.74,1.5-1.83,1.8-3.27z"/></g><path d="m105,90.25,1.7,0,0,17.35-1.7,0,0-17.35z"/><path d="m98.96,90.25,1.74,0,0,17.35-1.74,0,0-17.35z"/><g style="" transform="scale(1,-1)"><path d="m129-58.97c0-2.85,0.7-5.08,2.3-6.69,1.5-1.62,3.5-2.42,5.9-2.42,1.6,0,3,0.37,4.3,1.13,1.2,0.76,2.2,1.82,2.9,3.17,0.7,1.36,1,2.89,1,4.61,0,1.75-0.4,3.3-1.1,4.68-0.7,1.37-1.7,2.42-3,3.12-1.2,0.71-2.6,1.06-4.1,1.06-1.6,0-3.1-0.39-4.4-1.17-1.2-0.78-2.2-1.85-2.9-3.2-0.6-1.35-0.9-2.78-0.9-4.29zm2.3,0c0,2.07,0.6,3.7,1.7,4.89s2.5,1.79,4.2,1.79,3.1-0.6,4.2-1.81c1.1-1.2,1.6-2.91,1.6-5.12,0-1.4-0.2-2.62-0.7-3.66-0.4-1.04-1.1-1.85-2-2.43-0.9-0.57-2-0.86-3.1-0.86-1.6,0-3,0.56-4.2,1.66-1.1,1.11-1.7,2.95-1.7,5.54z"/><path d="m148.4-50.6,0-17.18,2.3,0,0,7.06,8.9,0,0-7.06,2.3,0,0,17.18-2.3,0,0-8.1-8.9,0,0,8.1z"/></g><path d="m128.6,66-0.8-1.45-15.6,8.95,0.9,1.5"/><path d="m77.96,64.55-0.85,1.5,16,9.25,0.85-1.5"/><g style="" transform="scale(1,-1)"><path d="m73.87-16.97,2.27,0.57c-0.47,1.87-1.33,3.29-2.57,4.27s-2.75,1.47-4.54,1.47c-1.85,0-3.36-0.37-4.52-1.13-1.16-0.75-2.04-1.84-2.65-3.27-0.6-1.43-0.9-2.97-0.9-4.61,0-1.79,0.34-3.35,1.02-4.68s1.66-2.34,2.92-3.04c1.26-0.69,2.65-1.03,4.16-1.03,1.72,0,3.17,0.43,4.34,1.31,1.17,0.87,1.99,2.11,2.45,3.69l-2.24,0.53c-0.4-1.25-0.98-2.16-1.73-2.73-0.76-0.57-1.71-0.86-2.86-0.86-1.32,0-2.43,0.32-3.31,0.95-0.89,0.63-1.51,1.48-1.87,2.55s-0.54,2.17-0.54,3.3c0,1.46,0.21,2.74,0.64,3.83,0.42,1.09,1.09,1.9,1.98,2.44,0.9,0.54,1.88,0.81,2.92,0.81,1.28,0,2.35-0.37,3.24-1.1,0.88-0.74,1.48-1.83,1.79-3.27z"/><path d="m78.62-10.95,0-17.18,2.11,0,0,17.18z"/></g><path d="m67.61,30.75,1.7,0,0,17.3-1.7,0,0-17.3z"/><path d="m50.76,83.1,6.6,3.8,0.6-1.6-6.15-3.55"/><path d="m54.36,78.65,5.05,2.9,0.6-1.6-4.6-2.65"/><path d="m57.96,74.2,3.5,2,0.6-1.6-3-1.75"/><path d="m61.56,69.75,1.95,1.15,0.6-1.65-1.45-0.85"/><g style="" transform="scale(1,-1)"><path d="m73.87-56.62,2.27,0.57c-0.47,1.87-1.33,3.29-2.57,4.27s-2.75,1.47-4.54,1.47c-1.85,0-3.36-0.37-4.52-1.13-1.16-0.75-2.04-1.84-2.65-3.27-0.6-1.43-0.9-2.97-0.9-4.61,0-1.79,0.34-3.35,1.02-4.68s1.66-2.34,2.92-3.04c1.26-0.69,2.65-1.03,4.16-1.03,1.72,0,3.17,0.43,4.34,1.31,1.17,0.87,1.99,2.11,2.45,3.69l-2.24,0.53c-0.4-1.25-0.98-2.16-1.73-2.73-0.76-0.57-1.71-0.86-2.86-0.86-1.32,0-2.43,0.32-3.31,0.95-0.89,0.63-1.51,1.48-1.87,2.55s-0.54,2.17-0.54,3.3c0,1.46,0.21,2.74,0.64,3.83,0.42,1.09,1.09,1.9,1.98,2.44,0.9,0.54,1.88,0.81,2.92,0.81,1.28,0,2.35-0.37,3.24-1.1,0.88-0.74,1.48-1.83,1.79-3.27z"/><path d="m42.67-91.02,2.27,0.57c-0.47,1.87-1.33,3.29-2.57,4.27s-2.75,1.47-4.54,1.47c-1.85,0-3.36-0.37-4.52-1.13-1.16-0.75-2.04-1.84-2.65-3.27-0.6-1.43-0.9-2.97-0.9-4.61,0-1.79,0.34-3.35,1.02-4.68s1.66-2.3,2.92-3,2.65-1.1,4.16-1.1c1.72,0,3.17,0.5,4.34,1.3,1.17,0.9,1.99,2.15,2.45,3.73l-2.24,0.53c-0.4-1.25-0.98-2.16-1.73-2.73-0.76-0.53-1.71-0.83-2.86-0.83-1.32,0-2.43,0.3-3.31,0.92-0.89,0.63-1.51,1.48-1.87,2.55s-0.54,2.17-0.54,3.3c0,1.46,0.21,2.74,0.64,3.83,0.42,1.09,1.09,1.9,1.98,2.44,0.9,0.54,1.88,0.81,2.92,0.81,1.28,0,2.35-0.37,3.24-1.1,0.88-0.74,1.48-1.83,1.79-3.27z"/><path d="m47.42-85,0-17.2,2.11,0,0,17.2z"/><path d="m24.17-66.92,2.27,0.57c-0.47,1.87-1.33,3.29-2.57,4.27s-2.75,1.47-4.54,1.47c-1.85,0-3.36-0.37-4.52-1.13-1.16-0.75-2.04-1.84-2.65-3.27-0.6-1.43-0.9-2.97-0.9-4.61,0-1.79,0.34-3.35,1.02-4.68s1.66-2.34,2.92-3.04c1.26-0.69,2.65-1.03,4.16-1.03,1.72,0,3.17,0.43,4.34,1.31,1.17,0.87,1.99,2.11,2.45,3.69l-2.24,0.53c-0.4-1.25-0.98-2.16-1.73-2.73-0.76-0.57-1.71-0.86-2.86-0.86-1.32,0-2.43,0.32-3.31,0.95-0.89,0.63-1.51,1.48-1.87,2.55s-0.54,2.17-0.54,3.3c0,1.46,0.21,2.74,0.64,3.83,0.42,1.09,1.09,1.9,1.98,2.44,0.9,0.54,1.88,0.81,2.92,0.81,1.28,0,2.35-0.37,3.24-1.1,0.88-0.74,1.48-1.83,1.79-3.27z"/><path d="m28.92-60.9,0-17.18,2.11,0,0,17.18z"/></g><path d="m33.86,65.4,1.95,7.35,23.45-9.35-0.45-1.65"/></g></svg>
